<svg width="50" height="50" viewBox="0 0 50 50" fill="none" xmlns="http://www.w3.org/2000/svg">
<g clip-path="url(#clip0_8_960)">
<path d="M34.5163 19.0094C33.8857 18.7125 33.5953 18.3125 33.6515 17.8094C33.7077 17.3062 33.92 16.9094 34.2915 16.6094C34.4039 16.5344 34.766 16.2469 35.378 15.7469C35.9899 15.2438 36.7454 14.6406 37.6351 13.9344C36.0741 12.15 34.2135 10.7469 32.0593 9.725C29.9083 8.70625 27.5668 8.19375 25.0381 8.19375C22.6966 8.19375 20.5019 8.63125 18.457 9.50312C16.4121 10.3781 14.6263 11.575 13.1028 13.1C11.5793 14.6219 10.3805 16.4062 9.50634 18.45C8.6322 20.4937 8.19512 22.6875 8.19512 25.0281C8.19512 27.3312 8.6322 29.5062 9.50634 31.55C10.3805 33.5937 11.5793 35.3781 13.1028 36.9C14.6263 38.425 16.4121 39.6219 18.457 40.4938C20.5019 41.3656 22.6935 41.8031 25.0381 41.8031C26.9705 41.8031 28.8031 41.4969 30.5296 40.8844C32.2591 40.2719 33.8388 39.4062 35.2687 38.2937C36.6985 37.1781 37.9255 35.8688 38.9495 34.3625C39.9703 32.8563 40.7259 31.2125 41.2066 29.4281C41.4658 28.575 41.9497 27.8688 42.6552 27.3094C43.3608 26.7531 44.1975 26.4719 45.1653 26.4719C46.3173 26.4719 47.2944 26.8813 48.0937 27.7C48.8929 28.5156 49.2925 29.4844 49.2925 30.5969C49.2925 31.1156 49.1988 31.6187 49.0146 32.1031C48.2341 34.7031 47.0821 37.1 45.5586 39.2938C44.0351 41.4875 42.2213 43.3719 40.1202 44.95C38.0191 46.5281 35.687 47.7656 33.1208 48.6562C30.5577 49.5531 27.8634 50 25.0381 50C21.5821 50 18.329 49.35 15.2788 48.05C12.2318 46.75 9.58127 44.9656 7.33346 42.7C5.08566 40.4344 3.2999 37.7844 1.97932 34.7562C0.658732 31.7281 0 28.4844 0 25.0281C0 21.5719 0.658732 18.3219 1.97932 15.2719C3.2999 12.225 5.08254 9.57813 7.33346 7.32813C9.58127 5.08125 12.2318 3.29688 15.2788 1.97813C18.3259 0.659375 21.5789 0 25.0381 0C28.8687 0 32.4183 0.790625 35.6901 2.36875C38.962 3.94688 41.7499 6.09375 44.0539 8.80625C44.9093 8.175 45.6242 7.625 46.2018 7.1625C46.7793 6.69688 47.1415 6.40938 47.2882 6.29688C47.513 6.1125 47.7534 5.97188 48.0125 5.87813C48.2716 5.78438 48.5151 5.78438 48.7368 5.87813C48.9584 5.97188 49.1551 6.16563 49.3237 6.4625C49.4923 6.75938 49.6109 7.20625 49.6859 7.8C49.7233 8.13438 49.7608 8.7 49.7982 9.5C49.8357 10.3 49.8732 11.2281 49.9106 12.2875C49.9481 13.3469 49.9668 14.4438 49.9668 15.575C49.9668 16.7094 49.9481 17.7781 49.9106 18.7813C49.8732 20.0438 49.5766 20.9562 49.0178 21.5125C48.7181 21.8125 48.2716 21.9813 47.6784 22.0188C47.0821 22.0563 46.4515 22 45.7834 21.85C44.7781 21.6281 43.673 21.3875 42.4648 21.125C41.2566 20.8656 40.1046 20.5969 39.0088 20.3156C37.913 20.0375 36.9452 19.775 36.1085 19.5344C35.2718 19.2969 34.7411 19.1188 34.5163 19.0094Z" fill="white"/>
</g>
<defs>
<clipPath id="clip0_8_960">
<rect width="50" height="50" fill="white"/>
</clipPath>
</defs>
</svg>
