<svg width="50" height="50" viewBox="0 0 50 50" fill="none" xmlns="http://www.w3.org/2000/svg">
<g clip-path="url(#clip0_8_948)">
<path d="M2.11318 28.777L5.39001 28.7975C5.88001 31.3189 6.84979 33.7689 8.31977 35.9942L5.9923 38.3013C5.15523 39.1282 5.15523 40.4654 5.97188 41.3025L8.4831 43.8444C9.30997 44.6814 10.6472 44.6814 11.4843 43.8648L13.8118 41.5577C16.0168 43.0481 18.4565 44.0587 20.9779 44.5691L20.9575 47.846C20.9473 49.0199 21.8967 49.9693 23.0706 49.9795L26.6435 49.9999C27.8174 50.0101 28.7668 49.0608 28.777 47.8868L28.7974 44.61C31.3189 44.12 33.7688 43.1502 35.9942 41.6802L38.3013 44.0077C39.1281 44.8448 40.4654 44.8448 41.3025 44.0281L43.8443 41.5169C44.6814 40.69 44.6814 39.3527 43.8647 38.5157L41.5577 36.1882C43.0481 33.9832 44.0587 31.5435 44.5691 29.022L47.8459 29.0425C49.0199 29.0527 49.9692 28.1033 49.9795 26.9294L49.9999 23.3565C50.0101 22.1825 49.0607 21.2332 47.8868 21.223L44.6099 21.2025C44.1199 18.6811 43.1502 16.2311 41.6802 14.0058L44.0077 11.6987C44.8447 10.8718 44.8447 9.53455 44.0281 8.69748L41.5169 6.15563C40.69 5.31856 39.3527 5.31856 38.5156 6.13522L36.1882 8.44228C33.9832 6.95188 31.5434 5.94126 29.022 5.43085L29.0424 2.15401C29.0526 0.98007 28.1033 0.0307062 26.9293 0.020498L23.3565 8.15595e-05C22.1825 -0.0101267 21.2332 0.939237 21.2229 2.11318L21.1923 5.39002C18.6607 5.88001 16.2107 6.84979 13.9955 8.31978L11.6885 5.9923C10.8616 5.15523 9.52434 5.15523 8.68726 5.97189L6.15563 8.48311C5.31856 9.30997 5.31856 10.6472 6.13521 11.4843L8.44227 13.8118C6.95187 16.0168 5.94126 18.4565 5.43085 20.978L2.15401 20.9575C0.980069 20.9473 0.0307062 21.8967 0.020498 23.0706L8.15594e-05 26.6435C-0.0101266 27.8073 0.939237 28.7668 2.11318 28.777ZM18.3034 18.232C22.0396 14.5366 28.0522 14.5672 31.7476 18.3034C35.443 22.0396 35.4123 28.0523 31.6761 31.7476C27.9399 35.443 21.9273 35.4124 18.2319 31.6762C14.5366 27.94 14.5672 21.9273 18.3034 18.232Z" fill="white"/>
</g>
<defs>
<clipPath id="clip0_8_948">
<rect width="50" height="50" fill="white"/>
</clipPath>
</defs>
</svg>
